<?xml version="1.0" standalone="no"?>
<!DOCTYPE svg PUBLIC "-//W3C//DTD SVG 20010904//EN"
 "http://www.w3.org/TR/2001/REC-SVG-20010904/DTD/svg10.dtd">
<svg version="1.0" xmlns="http://www.w3.org/2000/svg"
 width="1920.000000pt" height="1080.000000pt" viewBox="0 0 1920.000000 1080.000000"
 preserveAspectRatio="xMidYMid meet">

<g transform="translate(0.000000,1080.000000) scale(0.100000,-0.100000)"
fill="#7B68EE" stroke="none">
<path d="M4760 6509 c-132 -14 -305 -95 -476 -222 -188 -141 -330 -290 -395
-417 -31 -59 -34 -73 -34 -150 1 -113 23 -157 140 -279 51 -54 85 -96 78 -98
-41 -15 -206 -146 -316 -253 -271 -262 -419 -476 -483 -701 -23 -78 -26 -104
-22 -197 3 -98 7 -113 38 -177 23 -45 58 -94 100 -136 103 -104 198 -139 380
-139 112 0 205 17 335 62 496 170 1097 692 1154 1002 21 113 7 253 -25 263 -7
2 -26 -21 -44 -51 -113 -198 -416 -495 -699 -685 -205 -138 -426 -249 -588
-296 -106 -31 -230 -34 -283 -7 -69 34 -89 137 -50 248 71 203 391 549 717
775 89 62 220 129 250 129 13 0 32 9 44 21 17 17 20 29 15 63 -10 65 -56 144
-114 197 -60 55 -80 59 -185 38 -219 -44 -263 100 -92 301 114 134 346 310
524 399 106 53 148 66 166 51 58 -48 -56 -199 -210 -276 -114 -57 -122 -72
-84 -151 35 -73 160 -152 217 -138 66 16 219 171 277 281 87 164 69 342 -46
454 -76 73 -167 101 -289 89z"/>
<path d="M9859 6318 c-25 -21 -121 -136 -184 -220 -51 -69 -61 -78 -89 -78
-31 0 -224 -24 -296 -36 l-35 -6 58 59 c60 62 67 84 41 122 -22 31 -149 111
-203 128 -81 24 -116 1 -230 -152 -302 -403 -652 -1245 -725 -1746 -32 -218
-17 -370 49 -484 29 -50 105 -123 165 -157 84 -49 206 -59 270 -23 l25 14 -25
1 c-39 1 -107 36 -125 64 -20 31 -30 73 -44 185 -27 211 52 621 190 989 100
268 232 542 344 717 l37 58 21 -38 c33 -58 49 -64 86 -32 37 31 141 65 224 74
l58 6 -84 -169 c-229 -458 -392 -920 -442 -1249 -37 -248 0 -413 118 -528 69
-67 135 -97 212 -97 33 1 71 7 84 14 l23 13 -29 6 c-40 8 -89 60 -108 116 -43
121 -26 370 45 646 104 407 294 856 487 1150 l77 118 91 -6 c184 -11 360 -60
443 -124 28 -21 36 -23 43 -12 18 28 0 120 -38 194 -37 72 -90 102 -238 135
-55 12 -106 24 -113 26 -9 3 3 25 37 68 31 39 51 74 51 89 0 35 -57 106 -113
141 -54 33 -133 45 -158 24z"/>
<path d="M6225 6293 c-66 -16 -244 -262 -393 -543 -226 -428 -435 -1013 -486
-1361 -32 -218 -17 -370 49 -484 29 -50 105 -123 165 -157 84 -49 206 -59 270
-23 l25 14 -25 1 c-42 1 -109 37 -129 70 -10 17 -24 66 -32 108 -56 327 88
921 356 1467 134 272 262 465 418 631 42 45 77 90 77 101 0 31 -29 63 -104
110 -60 40 -145 76 -165 72 -3 -1 -15 -3 -26 -6z"/>
<path d="M6604 5846 c-38 -27 -134 -288 -134 -362 0 -35 61 -76 120 -82 88 -8
90 -6 179 152 110 193 112 198 81 232 -57 61 -198 95 -246 60z"/>
<path d="M7589 5593 c-127 -64 -328 -318 -449 -567 -113 -235 -155 -393 -148
-565 4 -118 20 -162 80 -217 80 -76 225 -144 305 -144 89 0 236 101 429 294
79 79 170 182 207 235 70 98 161 268 193 359 l19 54 -33 30 c-51 45 -68 36
-126 -65 -77 -134 -188 -278 -320 -414 -210 -218 -359 -310 -415 -254 -37 37
-24 187 30 349 17 51 24 62 38 56 132 -57 249 -34 357 67 128 122 258 385 271
549 5 60 3 68 -20 96 -29 35 -179 128 -238 150 -63 21 -118 18 -180 -13z m174
-285 c-36 -187 -150 -376 -249 -414 -65 -25 -73 -11 -35 63 65 130 252 383
282 383 5 0 6 -15 2 -32z"/>
<path d="M10208 5486 c-110 -24 -144 -87 -135 -250 l6 -104 -50 -42 c-96 -81
-198 -267 -245 -448 -33 -131 -32 -280 4 -348 59 -114 279 -235 427 -234 120
1 250 131 368 366 l46 91 53 -14 c65 -19 251 -21 271 -4 21 16 28 65 16 100
l-10 29 -97 0 c-68 0 -109 4 -136 16 -36 15 -38 18 -33 49 3 17 15 85 26 150
33 186 26 317 -23 422 -48 105 -168 190 -311 220 -82 17 -101 17 -177 1z m220
-252 c19 -65 22 -317 3 -359 l-13 -30 -14 27 c-29 55 -56 200 -51 273 4 71 32
148 51 142 6 -2 16 -26 24 -53z m-224 -408 c20 -38 95 -120 139 -154 l29 -21
-50 -103 c-63 -130 -115 -200 -194 -260 -35 -27 -66 -48 -69 -48 -22 0 -25
125 -4 241 24 142 101 379 122 379 5 0 17 -15 27 -34z"/>
<path d="M11441 5399 c-32 -35 -135 -250 -205 -429 -70 -181 -192 -548 -225
-678 -26 -102 -22 -113 62 -153 48 -22 76 -29 125 -29 58 0 64 2 78 28 142
257 251 429 388 612 67 90 195 234 202 227 2 -1 -15 -59 -37 -127 -52 -163
-89 -348 -89 -445 l0 -78 44 -43 c80 -76 232 -114 322 -79 100 38 245 192 397
422 115 173 210 347 203 370 -9 25 -51 53 -89 59 -32 5 -33 4 -98 -108 -91
-154 -205 -305 -314 -414 -88 -88 -181 -161 -192 -151 -23 24 74 334 191 610
42 98 76 185 76 194 0 48 -76 118 -159 148 -78 27 -118 21 -196 -32 -92 -61
-259 -230 -365 -370 -46 -62 -86 -110 -88 -108 -3 2 49 101 113 220 65 119
120 227 122 239 3 15 -5 34 -23 56 -60 71 -200 105 -243 59z"/>
<path d="M6402 5282 c-47 -47 -183 -378 -242 -589 -58 -206 -73 -329 -46 -381
34 -65 121 -113 217 -120 59 -4 72 -1 119 24 118 64 314 321 500 657 90 161
94 185 41 207 -43 17 -62 2 -116 -92 -163 -285 -381 -564 -436 -556 -21 3 -24
9 -27 55 -6 96 46 246 179 521 44 90 79 172 79 183 0 73 -214 145 -268 91z"/>
</g>
</svg>
